<?xml version="1.0" encoding="utf-8"?>
<!-- Generator: Adobe Illustrator 16.0.0, SVG Export Plug-In . SVG Version: 6.00 Build 0)  -->
<!DOCTYPE svg PUBLIC "-//W3C//DTD SVG 1.1//EN" "http://www.w3.org/Graphics/SVG/1.1/DTD/svg11.dtd">
<svg version="1.1" id="Layer_1" xmlns="http://www.w3.org/2000/svg" xmlns:xlink="http://www.w3.org/1999/xlink" x="0px" y="0px"
	 width="44px" height="44px" viewBox="0 0 44 44" enable-background="new 0 0 44 44" xml:space="preserve">
<path fill="#FFFFFF" d="M12.886,20.94h2.967c0,3.391-1.272,2.12-1.272,4.028c0,3.604,2.332-0.213,2.332,9.113v1.484
	c0,4.451-2.12,5.935-5.087,5.935c-2.968,0-5.087-1.483-5.087-5.935v-1.484c0-9.113,2.332-5.51,2.332-9.113
	c0-1.908-1.272-0.848-1.272-4.028h2.967v-8.902l-1.06-2.755V4.832l2.12-2.332l2.119,2.332v4.451l-1.06,2.755V20.94L12.886,20.94z
	 M31.325,2.5v7.842l-3.391,2.119l-3.391-2.119V2.5c0,0-5.723,1.696-5.723,7.842s5.723,6.358,5.723,10.809
	c0,5.935-1.061,10.812-1.061,14.624c0,2.969,2.015,5.725,4.558,5.725c2.544,0,4.133-3.18,4.344-5.725
	c0-4.025-1.06-8.689-1.06-14.624c0-4.663,5.936-4.451,5.936-10.809C37.261,3.56,31.325,2.5,31.325,2.5z"/>
</svg>
