<?xml version="1.0" encoding="utf-8"?>
<!-- Generator: Adobe Illustrator 16.0.0, SVG Export Plug-In . SVG Version: 6.00 Build 0)  -->
<!DOCTYPE svg PUBLIC "-//W3C//DTD SVG 1.1//EN" "http://www.w3.org/Graphics/SVG/1.1/DTD/svg11.dtd">
<svg version="1.1" id="Layer_1" xmlns="http://www.w3.org/2000/svg" xmlns:xlink="http://www.w3.org/1999/xlink" x="0px" y="0px"
	 width="44px" height="44px" viewBox="0 0 44 44" enable-background="new 0 0 44 44" xml:space="preserve">
<path fill="#FFFFFF" d="M37.537,20.232c-0.041-0.366-0.122-0.732-0.244-1.078l0,0l0,0c-0.976-2.946-4.572-5.101-8.535-5.101
	c-0.609,0-1.199,0.041-1.768,0.142c-0.61-3.313-4.188-5.853-8.476-5.853c-4.735,0-8.576,3.068-8.576,6.869
	c0,0.223,0.021,0.447,0.041,0.65c-0.224-0.02-0.447-0.02-0.671-0.02c-3.76,0-6.809,2.845-6.809,6.36c0,3.049,2.317,5.61,5.386,6.219
	v0.061h0.366c0.345,0.041,0.69,0.082,1.057,0.082c0.365,0,0.711-0.021,1.057-0.082h0.427v2.643c0,0.102,0.061,0.203,0.143,0.244
	l10.222,4.248l0,0c0.021,0.02,0.041,0.02,0.062,0.02h0.021h0.02c0.021,0,0.041,0.02,0.062,0.02c0,0,0,0,0.021,0c0,0,0,0,0.021,0
	s0.04-0.02,0.061-0.02c0,0,0,0,0.021,0h0.021c0.021,0,0.04,0,0.061-0.02c0,0,0,0,0.021,0l10.202-4.27
	c0.102-0.039,0.162-0.141,0.162-0.242v-2.643h0.306c7.133,0.385,9.287-1.281,9.287-3.861C41.439,22.59,39.813,20.862,37.537,20.232
	 M20.954,35.027l-9.613-4.066V18.667l9.613,4.065V35.027z M21.218,22.285l-9.512-4.024l9.613-4.023l9.613,4.023L21.218,22.285z
	 M21.482,35.027V22.732l9.855-4.065v12.294L21.482,35.027z"/>
</svg>
